<?xml version="1.0" encoding="UTF-8" standalone="no"?><svg xmlns="http://www.w3.org/2000/svg" xmlns:xlink="http://www.w3.org/1999/xlink" contentScriptType="text/ecmascript" zoomAndPan="magnify" contentStyleType="text/css" stroke="#000000" stroke-linecap="square" version="1" width="79" stroke-miterlimit="10" fill="#000000" preserveAspectRatio="xMidYMid meet" viewBox="0 0 79.37 29.38" height="29"><g><g fill="#ffffff" fill-opacity="0" stroke-opacity="0" stroke="#ffffff"><path fill="none" d="M.5 5.27L.88 3.41 1.9 1.9 3.42.87 5.27.5H74.37l1.86.37L77.74 1.9l1.02 1.52.37 1.86v19.1l-.37 1.86-1.02 1.52-1.52 1.02-1.86.38H5.27l-1.86-.38L1.9 27.75.88 26.23.5 24.37V5.27Z" stroke="none"/></g><g fill="#41709c" stroke="#41709c"><path fill="none" d="M.5 5.27L.88 3.41 1.9 1.9 3.42.87 5.27.5H74.37l1.86.37L77.74 1.9l1.02 1.52.37 1.86v19.1l-.37 1.86-1.02 1.52-1.52 1.02-1.86.38H5.27l-1.86-.38L1.9 27.75.88 26.23.5 24.37V5.27Z"/></g></g></svg>