<?xml version="1.0" encoding="UTF-8" standalone="no"?><svg xmlns="http://www.w3.org/2000/svg" xmlns:xlink="http://www.w3.org/1999/xlink" contentScriptType="text/ecmascript" zoomAndPan="magnify" contentStyleType="text/css" stroke="#000000" stroke-linecap="square" version="1" width="93" stroke-miterlimit="10" fill="#000000" preserveAspectRatio="xMidYMid meet" viewBox="0 0 92.89 27.88" height="28"><g><g fill="#ffffff" fill-opacity="0" stroke-opacity="0" stroke="#ffffff"><path fill="none" d="M.5 5.02L.86 3.26l.97-1.44L3.26.86 5.02.5H88.15L89.9.86l1.44.97.97 1.44.36 1.76V23.11l-.36 1.76-.97 1.44-1.44.97-1.76.36H5.02l-1.76-.36-1.44-.97-.97-1.44L.5 23.11V5.02Z" stroke="none"/></g><g fill="#41709c" stroke="#41709c"><path fill="none" d="M.5 5.02L.86 3.26l.97-1.44L3.26.86 5.02.5H88.15L89.9.86l1.44.97.97 1.44.36 1.76V23.11l-.36 1.76-.97 1.44-1.44.97-1.76.36H5.02l-1.76-.36-1.44-.97-.97-1.44L.5 23.11V5.02Z"/></g></g></svg>