<?xml version="1.0" encoding="UTF-8" standalone="no"?><svg xmlns="http://www.w3.org/2000/svg" xmlns:xlink="http://www.w3.org/1999/xlink" contentScriptType="text/ecmascript" zoomAndPan="magnify" contentStyleType="text/css" stroke="#000000" stroke-linecap="square" version="1" width="73" stroke-miterlimit="10" fill="#000000" preserveAspectRatio="xMidYMid meet" viewBox="0 0 73.09 38.66" height="39"><g><g fill="#ffffff" fill-opacity="0" stroke-opacity="0" stroke="#ffffff"><path fill="none" d="M.5 6.82L1 4.36 2.35 2.35 4.36 1 6.82.5h59.7l2.46.5 2.01 1.35 1.35 2.01.5 2.46V32.09l-.5 2.46-1.35 2.01-2.01 1.35-2.46.5H6.82l-2.46-.5-2.01-1.35L1 34.55.5 32.09V6.82Z" stroke="none"/></g><g fill="#41709c" stroke="#41709c"><path fill="none" d="M.5 6.82L1 4.36 2.35 2.35 4.36 1 6.82.5h59.7l2.46.5 2.01 1.35 1.35 2.01.5 2.46V32.09l-.5 2.46-1.35 2.01-2.01 1.35-2.46.5H6.82l-2.46-.5-2.01-1.35L1 34.55.5 32.09V6.82Z"/></g></g></svg>