<?xml version="1.0" encoding="UTF-8" standalone="no"?><svg xmlns="http://www.w3.org/2000/svg" xmlns:xlink="http://www.w3.org/1999/xlink" contentScriptType="text/ecmascript" zoomAndPan="magnify" contentStyleType="text/css" stroke="#000000" stroke-linecap="square" version="1" width="86" stroke-miterlimit="10" fill="#000000" preserveAspectRatio="xMidYMid meet" viewBox="0 0 86.32 37.64" height="38"><g><g fill="#ffffff" fill-opacity="0" stroke-opacity="0" stroke="#ffffff"><path fill="none" d="M.5 6.65L.98 4.25 2.3 2.3 4.26.98 6.65.5H79.9l2.4.48L84.25 2.3l1.32 1.95.48 2.39V31.24l-.48 2.4-1.32 1.96-1.96 1.32-2.4.48H6.65l-2.4-.48L2.3 35.59.98 33.64.5 31.24V6.65Z" stroke="none"/></g><g fill="#41709c" stroke="#41709c"><path fill="none" d="M.5 6.65L.98 4.25 2.3 2.3 4.26.98 6.65.5H79.9l2.4.48L84.25 2.3l1.32 1.95.48 2.39V31.24l-.48 2.4-1.32 1.96-1.96 1.32-2.4.48H6.65l-2.4-.48L2.3 35.59.98 33.64.5 31.24V6.65Z"/></g></g></svg>