<?xml version="1.0" encoding="UTF-8" standalone="no"?><svg xmlns="http://www.w3.org/2000/svg" xmlns:xlink="http://www.w3.org/1999/xlink" contentScriptType="text/ecmascript" zoomAndPan="magnify" contentStyleType="text/css" stroke="#000000" stroke-linecap="square" version="1" width="72" stroke-miterlimit="10" fill="#000000" preserveAspectRatio="xMidYMid meet" viewBox="0 0 72.06 38.99" height="39"><g><g fill="#ffffff" fill-opacity="0" stroke-opacity="0" stroke="#ffffff"><path fill="none" d="M.5 6.88L1 4.4 2.37 2.37 4.39 1 6.87.5H65.45l2.48.5 2.03 1.37L71.32 4.4l.5 2.48V32.37l-.5 2.48-1.37 2.03-2.03 1.37-2.48.5H6.87l-2.48-.5-2.03-1.37L1 34.85.5 32.37V6.88Z" stroke="none"/></g><g fill="#41709c" stroke="#41709c"><path fill="none" d="M.5 6.88L1 4.4 2.37 2.37 4.39 1 6.87.5H65.45l2.48.5 2.03 1.37L71.32 4.4l.5 2.48V32.37l-.5 2.48-1.37 2.03-2.03 1.37-2.48.5H6.87l-2.48-.5-2.03-1.37L1 34.85.5 32.37V6.88Z"/></g></g></svg>