<?xml version="1.0" encoding="UTF-8" standalone="no"?><svg xmlns="http://www.w3.org/2000/svg" xmlns:xlink="http://www.w3.org/1999/xlink" contentScriptType="text/ecmascript" zoomAndPan="magnify" contentStyleType="text/css" stroke="#000000" stroke-linecap="square" version="1" width="76" stroke-miterlimit="10" fill="#000000" preserveAspectRatio="xMidYMid meet" viewBox="0 0 75.94 37.35" height="37"><g><g fill="#ffffff" fill-opacity="0" stroke-opacity="0" stroke="#ffffff"><path fill="none" d="M.5 6.6L.98 4.23 2.29 2.29 4.22.98 6.6.5H69.58l2.37.48L73.9 2.29 75.2 4.23l.48 2.37v24.4l-.48 2.38-1.31 1.94-1.94 1.31-2.37.48H6.6l-2.38-.48-1.94-1.31L.98 33.38.5 31.01V6.6Z" stroke="none"/></g><g fill="#41709c" stroke="#41709c"><path fill="none" d="M.5 6.6L.98 4.23 2.29 2.29 4.22.98 6.6.5H69.58l2.37.48L73.9 2.29 75.2 4.23l.48 2.37v24.4l-.48 2.38-1.31 1.94-1.94 1.31-2.37.48H6.6l-2.38-.48-1.94-1.31L.98 33.38.5 31.01V6.6Z"/></g></g></svg>