<?xml version="1.0" encoding="UTF-8" standalone="no"?><svg xmlns="http://www.w3.org/2000/svg" xmlns:xlink="http://www.w3.org/1999/xlink" contentScriptType="text/ecmascript" zoomAndPan="magnify" contentStyleType="text/css" stroke="#000000" stroke-linecap="square" version="1" width="78" stroke-miterlimit="10" fill="#000000" preserveAspectRatio="xMidYMid meet" viewBox="0 0 77.51 28.36" height="28"><g><g fill="#ffffff" fill-opacity="0" stroke-opacity="0" stroke="#ffffff"><path fill="none" d="M.5 5.1L.86 3.31l.99-1.46L3.31.86 5.1.5H72.66l1.79.36 1.46.99.99 1.46.36 1.79V23.51L76.9 25.3l-.99 1.46-1.46.99-1.79.36H5.1l-1.79-.36-1.46-.99L.86 25.3.5 23.51V5.1Z" stroke="none"/></g><g fill="#41709c" stroke="#41709c"><path fill="none" d="M.5 5.1L.86 3.31l.99-1.46L3.31.86 5.1.5H72.66l1.79.36 1.46.99.99 1.46.36 1.79V23.51L76.9 25.3l-.99 1.46-1.46.99-1.79.36H5.1l-1.79-.36-1.46-.99L.86 25.3.5 23.51V5.1Z"/></g></g></svg>