<?xml version="1.0" encoding="UTF-8" standalone="no"?><svg xmlns="http://www.w3.org/2000/svg" xmlns:xlink="http://www.w3.org/1999/xlink" contentScriptType="text/ecmascript" zoomAndPan="magnify" contentStyleType="text/css" stroke="#000000" stroke-linecap="square" version="1" width="105" stroke-miterlimit="10" fill="#000000" preserveAspectRatio="xMidYMid meet" viewBox="0 0 104.73 27.55" height="28"><g><g fill="#ffffff" fill-opacity="0" stroke-opacity="0" stroke="#ffffff"><path fill="none" d="M.5 4.97L.85 3.23l.96-1.42L3.23.85 4.97.5h95.06l1.74.35 1.42.96.96 1.42.35 1.74V22.83l-.35 1.74-.96 1.42-1.42.96-1.74.35H4.97l-1.74-.35-1.42-.96-.96-1.42L.5 22.83V4.97Z" stroke="none"/></g><g fill="#41709c" stroke="#41709c"><path fill="none" d="M.5 4.97L.85 3.23l.96-1.42L3.23.85 4.97.5h95.06l1.74.35 1.42.96.96 1.42.35 1.74V22.83l-.35 1.74-.96 1.42-1.42.96-1.74.35H4.97l-1.74-.35-1.42-.96-.96-1.42L.5 22.83V4.97Z"/></g></g></svg>