<?xml version="1.0" encoding="UTF-8" standalone="no"?><svg xmlns="http://www.w3.org/2000/svg" xmlns:xlink="http://www.w3.org/1999/xlink" contentScriptType="text/ecmascript" zoomAndPan="magnify" contentStyleType="text/css" stroke="#000000" stroke-linecap="square" version="1" width="82" stroke-miterlimit="10" fill="#000000" preserveAspectRatio="xMidYMid meet" viewBox="0 0 81.89 38.77" height="39"><g><g fill="#ffffff" fill-opacity="0" stroke-opacity="0" stroke="#ffffff"><path fill="none" d="M81.64 36l-.44.66-2.01 1.36-2.47.5H6.84l-2.47-.5-2.01-1.36L1 34.64.5 32.18V6.84L1 4.37 2.36 2.36 4.37 1 6.84.5H76.71l2.47.5L81.2 2.36l.44.66" stroke="none"/></g><g fill="#41709c" stroke="#41709c"><path fill="none" d="M81.64 36l-.44.66-2.01 1.36-2.47.5H6.84l-2.47-.5-2.01-1.36L1 34.64.5 32.18V6.84L1 4.37 2.36 2.36 4.37 1 6.84.5H76.71l2.47.5L81.2 2.36l.44.66"/></g></g></svg>